<svg viewBox="0 0 512 512" width="25px" height="25px"><g><path fill="#1F2937" d="M144.3,287.7h-31.7V512h31.7c8.4,0,15.8-7.4,15.8-15.8V304.4C160.1,295.1,152.7,287.7,144.3,287.7z"/><path fill="#1F2937" d="M367.7,287.7c-8.4,0-15.8,7.4-15.8,15.8v191.8c0,8.4,7.4,15.8,15.8,15.8h31.7V287.7H367.7z"/><path fill="#1F2937" d="M512,256C512,114.5,397.5,0,256,0S0,114.5,0,256c0,30.7,5.6,60.5,14.9,87.5C5.6,360.3,0,379.8,0,400.3c0,56.8,41.9,103.3,95.9,110.8V289.5c-15.8,1.9-30.7,8.4-43.8,15.8c-2.8-13-3.7-27-3.7-41c0-114.5,93.1-207.6,207.6-207.6s207.6,93.1,207.6,207.6c0,14-1.9,27.9-3.7,41c-13-8.4-27.9-14-43.8-15.8v221.6c54-7.4,95.9-54,95.9-110.8c0-20.5-5.6-40-14.9-56.8C506.4,316.5,512,286.7,512,256z"/></g></svg>